<?xml version="1.0" standalone="no"?><!DOCTYPE svg PUBLIC "-//W3C//DTD SVG 1.1//EN" "http://www.w3.org/Graphics/SVG/1.1/DTD/svg11.dtd"><svg t="1616399573124" class="icon" viewBox="0 0 1024 1024" version="1.1" xmlns="http://www.w3.org/2000/svg" p-id="998" xmlns:xlink="http://www.w3.org/1999/xlink" width="200" height="200"><defs><style type="text/css"></style></defs><path d="M485 678H385V182c0-27.6 22.4-50 50-50s50 22.4 50 50v496zM331 678H231V363c0-27.6 22.4-50 50-50s50 22.4 50 50v315zM639 678H539V286c0-27.6 22.4-50 50-50s50 22.4 50 50v392zM793 678H693V426c0-27.6 22.4-50 50-50s50 22.4 50 50v252z" p-id="999"></path></svg>